<?xml version="1.0" standalone="no"?>
<!DOCTYPE svg PUBLIC "-//W3C//DTD SVG 20010904//EN"
 "http://www.w3.org/TR/2001/REC-SVG-20010904/DTD/svg10.dtd">
<svg version="1.0" xmlns="http://www.w3.org/2000/svg"
 width="978.000000pt" height="310.000000pt" viewBox="0 0 978.000000 310.000000"
 preserveAspectRatio="xMidYMid meet">

<g transform="translate(0.000000,310.000000) scale(0.100000,-0.100000)"
fill="#000000" stroke="none">
<path d="M1269 2524 c-384 -69 -714 -368 -823 -747 -129 -446 39 -918 419
-1177 436 -296 1016 -234 1376 147 261 277 354 677 243 1043 -116 379 -442
667 -833 735 -103 18 -280 18 -382 -1z m296 -123 c31 -11 78 -36 106 -56 44
-33 124 -121 147 -161 6 -11 18 -9 65 10 l58 23 -36 53 c-20 29 -34 54 -32 56
4 5 118 -63 153 -91 22 -18 25 -25 14 -28 -127 -40 -169 -56 -250 -96 -118
-59 -250 -141 -366 -226 -71 -52 -96 -65 -125 -65 -46 0 -99 -45 -99 -84 0
-20 -31 -57 -133 -158 -73 -73 -143 -147 -155 -164 l-22 -32 45 -36 45 -37
146 150 c133 138 149 151 181 151 26 0 43 8 69 34 19 19 34 43 34 54 0 25 49
66 200 167 199 133 459 245 542 233 36 -5 35 -54 -3 -143 -31 -76 -32 -78 -19
-146 19 -109 28 -105 107 50 l48 93 32 -70 c59 -127 84 -233 89 -377 5 -119 4
-128 -10 -111 -9 11 -16 37 -16 57 0 21 -5 49 -11 62 -11 24 -57 57 -80 57 -8
0 -42 28 -76 62 -35 34 -63 58 -63 53 1 -68 24 -254 35 -274 12 -25 36 -41 78
-55 24 -8 58 -90 64 -157 11 -117 -67 -196 -234 -235 -51 -12 -104 -15 -215
-12 -136 4 -149 6 -171 27 -32 29 -74 40 -116 28 -40 -10 -82 0 -222 54 -334
130 -618 350 -724 561 -59 120 -59 202 2 269 41 46 74 65 152 89 53 17 54 18
77 80 l24 63 -45 -6 c-25 -4 -57 -10 -72 -13 l-28 -7 30 33 c44 47 142 123
212 164 34 20 63 36 66 36 3 0 -19 -36 -49 -81 -56 -86 -111 -208 -140 -311
-13 -44 -28 -72 -51 -94 -26 -25 -33 -39 -33 -71 0 -21 7 -48 14 -59 12 -15
14 -43 9 -139 -5 -119 -5 -120 20 -143 l25 -24 35 38 c33 36 35 43 41 131 6
80 11 97 31 117 33 33 40 70 23 115 -14 36 -13 43 13 125 60 183 180 362 289
431 89 56 183 68 275 36z m-850 -1067 c182 -183 423 -328 698 -419 81 -27 104
-39 128 -68 39 -48 85 -57 134 -28 32 19 42 20 142 11 106 -10 252 -1 320 19
30 9 32 8 24 -8 -21 -39 -252 -211 -283 -211 -4 0 15 35 42 77 l50 78 -67 3
c-67 3 -68 3 -92 -30 -47 -63 -156 -164 -202 -186 -143 -69 -274 -39 -404 93
-81 83 -142 184 -189 315 -29 83 -37 94 -76 120 l-44 29 -19 -30 c-19 -29 -19
-30 7 -112 30 -97 94 -233 140 -297 18 -25 36 -51 41 -59 10 -17 -71 28 -142
79 l-48 33 32 9 33 8 -27 55 -26 54 -70 -6 -70 -6 5 44 c5 44 45 138 90 212
l23 38 -40 34 c-22 19 -44 34 -50 35 -13 0 -55 -67 -93 -148 l-30 -64 -16 24
c-67 103 -132 395 -111 504 l6 36 37 -63 c22 -38 81 -109 147 -175z"/>
<path d="M1094 2069 c-31 -62 -29 -64 69 -72 40 -4 117 -18 172 -31 l100 -25
63 41 c34 22 61 42 59 44 -19 20 -338 94 -401 94 -33 0 -38 -4 -62 -51z"/>
<path d="M1968 2018 c-27 -11 -48 -24 -48 -29 0 -5 11 -47 25 -94 75 -261 71
-638 -9 -864 -9 -24 -15 -45 -13 -47 2 -2 32 0 67 4 l65 7 17 65 c38 139 51
274 45 475 -4 116 -12 217 -21 260 -21 94 -68 245 -75 244 -3 0 -27 -10 -53
-21z"/>
<path d="M1723 1893 l-62 -37 101 -53 c56 -30 121 -68 146 -85 l45 -31 -7 39
c-25 135 -22 129 -89 165 -34 19 -64 35 -67 36 -3 2 -33 -14 -67 -34z"/>
<path d="M1860 1548 c-106 -115 -269 -261 -398 -358 -56 -41 -101 -78 -102
-82 0 -8 104 -48 124 -48 32 0 346 269 438 375 l43 50 -3 78 c-2 42 -6 77 -11
77 -4 0 -45 -41 -91 -92z"/>
<path d="M1105 963 c-16 -8 -32 -17 -34 -19 -2 -2 9 -28 24 -59 l27 -55 79 42
c43 24 79 45 79 48 0 6 -125 60 -137 60 -4 -1 -21 -8 -38 -17z"/>
<path d="M4840 1560 l0 -480 85 0 85 0 0 35 c0 19 2 35 4 35 2 0 18 -14 36
-30 69 -65 202 -75 307 -24 89 43 143 122 163 238 37 208 -89 383 -282 394
-78 5 -129 -9 -180 -50 l-38 -29 0 196 0 195 -90 0 -90 0 0 -480z m436 -7 c53
-34 84 -137 65 -210 -30 -111 -142 -163 -241 -113 -145 74 -116 316 41 349 40
9 100 -3 135 -26z"/>
<path d="M8690 1560 l0 -480 85 0 85 0 0 35 c0 39 9 45 27 16 23 -37 102 -66
183 -65 164 0 285 112 305 283 24 211 -111 381 -304 381 -71 0 -115 -14 -163
-52 l-38 -29 0 196 0 195 -90 0 -90 0 0 -480z m435 -6 c63 -41 91 -149 61
-228 -41 -107 -155 -146 -253 -86 -63 38 -92 146 -63 234 13 41 69 93 108 102
15 3 32 7 37 8 18 5 86 -14 110 -30z"/>
<path d="M3418 1971 c-74 -24 -149 -72 -194 -125 -138 -161 -146 -443 -17
-613 153 -200 503 -225 691 -49 49 46 110 142 98 154 -4 3 -42 19 -84 34 -71
27 -78 27 -87 12 -26 -45 -85 -99 -130 -120 -70 -33 -170 -33 -241 0 -200 93
-207 424 -10 529 59 32 203 32 262 0 39 -21 82 -63 114 -111 l15 -23 75 27
c41 15 79 30 83 34 24 21 -72 148 -151 200 -104 69 -295 92 -424 51z"/>
<path d="M6920 1530 l0 -450 95 0 95 0 0 185 0 185 193 -2 192 -3 3 -182 2
-183 90 0 90 0 0 450 0 450 -90 0 -90 0 -2 -182 -3 -183 -192 -3 -193 -2 0
185 0 185 -95 0 -95 0 0 -450z"/>
<path d="M5805 1706 c-77 -32 -146 -104 -171 -178 -11 -34 -17 -81 -17 -133 2
-184 98 -299 273 -323 81 -12 165 -1 226 29 52 26 117 94 132 138 l10 29 -77
11 -78 12 -40 -41 c-41 -41 -58 -45 -138 -40 -46 3 -91 36 -114 84 -39 80 -52
76 220 76 l242 0 -6 76 c-11 125 -58 203 -151 251 -43 23 -66 27 -151 30 -88
3 -107 1 -160 -21z m231 -122 c26 -18 54 -63 54 -89 0 -13 -21 -15 -145 -15
-137 0 -145 1 -145 20 0 28 57 88 94 100 41 12 110 5 142 -16z"/>
<path d="M6735 1721 c-43 -11 -96 -39 -127 -69 l-28 -26 0 47 0 47 -85 0 -85
0 0 -320 0 -320 90 0 90 0 0 183 c0 155 3 188 19 223 21 46 62 70 135 80 l46
7 0 78 c0 84 1 83 -55 70z"/>
<path d="M4050 1715 c0 -4 58 -143 130 -310 l130 -303 -70 -157 c-39 -87 -70
-161 -70 -166 0 -5 38 -9 85 -9 70 0 86 3 94 18 7 12 349 824 388 920 4 10
-15 12 -88 10 l-93 -3 -73 -190 c-40 -104 -76 -199 -81 -209 -6 -15 -26 31
-84 190 l-76 209 -96 3 c-53 1 -96 0 -96 -3z"/>
<path d="M7880 1488 c0 -137 5 -249 11 -273 26 -94 102 -146 217 -148 80 -1
134 15 185 55 l37 29 0 -36 0 -35 85 0 85 0 0 320 0 320 -90 0 -90 0 0 -200
c0 -152 -3 -209 -14 -235 -32 -76 -146 -101 -208 -46 l-33 29 -3 226 -3 226
-90 0 -89 0 0 -232z"/>
</g>
</svg>
